<svg width="57" height="30" viewBox="0 0 57 30" fill="none" xmlns="http://www.w3.org/2000/svg">
<path d="M19.9387 16.1392C23.7142 20.9974 24.4972 28.8325 19.5628 28.8325C12.4107 28.8325 16.8868 12.3754 28.6413 12.3754C32.2873 12.3754 35.1899 13.9589 37.276 16.1445C41.915 21.0027 41.8649 28.3624 38.2961 28.8325C32.8542 29.5498 33.2719 21.1083 37.276 16.1276" stroke="white" stroke-width="2" stroke-miterlimit="10" stroke-linecap="round"/>
<path d="M1 28.8754C1 28.8754 1.24179 12.3754 10.8212 12.3754C12.4656 12.3754 13.8682 13.2236 14.75 14.0527" stroke="white" stroke-width="2" stroke-miterlimit="10" stroke-linecap="round"/>
<path d="M11.3609 5.59823C12.9068 5.59823 14.16 4.34502 14.16 2.79911C14.16 1.25321 12.9068 0 11.3609 0C9.81494 0 8.56174 1.25321 8.56174 2.79911C8.56174 4.34502 9.81494 5.59823 11.3609 5.59823Z" fill="white"/>
<path d="M27.8619 5.59823C29.4078 5.59823 30.661 4.34502 30.661 2.79911C30.661 1.25321 29.4078 0 27.8619 0C26.316 0 25.0627 1.25321 25.0627 2.79911C25.0627 4.34502 26.316 5.59823 27.8619 5.59823Z" fill="white"/>
<path d="M55.9999 28.8754C55.9999 28.8754 55.8368 12.3776 46.3957 12.3776C46.3957 12.3776 43.6399 12.2129 41.5623 14.6831" stroke="white" stroke-width="2" stroke-miterlimit="10" stroke-linecap="round"/>
<path d="M44.3614 5.59823C45.9073 5.59823 47.1605 4.34502 47.1605 2.79911C47.1605 1.25321 45.9073 0 44.3614 0C42.8155 0 41.5623 1.25321 41.5623 2.79911C41.5623 4.34502 42.8155 5.59823 44.3614 5.59823Z" fill="white"/>
</svg>
